General
Complete name                    : A Night at the Opera (1935).mkv
Format                           : Matroska
File size                        : 2.38 GiB
Duration                         : 1h 27mn
Overall bit rate                 : 3 898 Kbps


Video
ID                               : 1
Format                           : AVC

Codec ID                         : V_MPEG4/ISO/AVC
Duration                         : 1h 27mn
Bit rate                         : 3 275 Kbps
Nominal bit rate                 : 3 300 Kbps
Width                            : 718 pixels
Height                           : 576 pixels
Display aspect ratio             : 4/3
Frame rate                       : 25.000 fps
Resolution                       : 24 bits
Colorimetry                      : 4:2:0
Scan type                        : Progressive
Bits/(Pixel*Frame)               : 0.317
Stream size                      : 2.00 GiB (84%)
Writing library                  : x264 core 79

Audio #1
ID                               : Commentary by Lenoard Maltin
Format                           : MPEG Audio
Format version                   : Version 1
Format profile                   : Layer 3
Codec ID                         : A_MPEG/L3
Codec ID/Hint                    : MP3
Duration                         : 1h 27mn
Bit rate mode                    : Constant
Bit rate                         : 112 Kbps
Channel(s)                       : 2 channels
Sampling rate                    : 48.0 KHz
Resolution                       : 16 bits
Stream size                      : 70.0 MiB (3%)
Writing library                  : LAME3.98
Language                         : English

Audio #2
ID                               : 3
Format                           : MPEG Audio
Format version                   : Version 1
Format profile                   : Layer 3
Codec ID                         : A_MPEG/L3
Codec ID/Hint                    : MP3
Duration                         : 1h 27mn
Bit rate mode                    : Constant
Bit rate                         : 112 Kbps
Channel(s)                       : 2 channels
Sampling rate                    : 48.0 KHz
Resolution                       : 16 bits
Stream size                      : 70.0 MiB (3%)
Writing library                  : LAME3.98
Language                         : German

Audio #3
ID                               : 4
Format                           : MPEG Audio
Format version                   : Version 1
Format profile                   : Layer 3
Codec ID                         : A_MPEG/L3
Codec ID/Hint                    : MP3
Duration                         : 1h 27mn
Bit rate mode                    : Constant
Bit rate                         : 112 Kbps
Channel(s)                       : 2 channels
Sampling rate                    : 48.0 KHz
Resolution                       : 16 bits
Stream size                      : 70.0 MiB (3%)
Writing library                  : LAME3.98
Language                         : Spanish (Castellano)

Audio #4
ID                               : 5
Format                           : AC-3
Format/Info                      : Audio Coding 3
Codec ID                         : A_AC3
Duration                         : 1h 27mn
Bit rate mode                    : Constant
Bit rate                         : 192 Kbps
Channel(s)                       : 2 channels
Channel positions                : L R
Sampling rate                    : 48.0 KHz
Stream size                      : 120 MiB (5%)
Language                         : English

Text #1
Language                         : English

Text #2
Language                         : German

Text #3
Language                         : Spanish

Text #4
Language                         : French

Text #5
Language                         : Italian

Text #6
Language                         : Portuguese

Text #7
Language                         : Danish

Text #8
Language                         :????? Arabic????

Text #9
Language                         : Swedish

Text #10
Language                         : Czech

Text #11
Language                         : Greek

Text #12
Language                         : Hungarian

Text #13
Language                         : Polish

Text #14
Language                         : Turkish

Text #15
Language                         : Finnish

Text #16
Language                         : English for Hearing

Text #17
Language                         : German  fur Hörgeschädigte